<svg width="126" height="30" viewBox="0 0 126 30" fill="none" xmlns="http://www.w3.org/2000/svg">
<path d="M17.4651 16.4111C17.2169 16.1329 16.7863 16.1252 16.5002 16.3643C15.0235 17.5981 13.203 18.0933 11.9024 18.0933C7.63356 18.0933 6.14876 14.9071 6.11783 12.0922C6.08689 9.27725 7.72636 5.87457 11.9024 5.87457C13.21 5.87457 14.6427 6.19988 16.0431 7.34562C16.313 7.56645 16.7093 7.56691 16.9579 7.32237L19.8161 4.51104C20.0736 4.25773 20.0736 3.84087 19.8036 3.60095C17.4739 1.53131 14.8233 0.584961 11.9024 0.584961C3.76689 0.584961 0.0239443 6.49324 0.0548776 12.0613C0.0858111 17.9386 3.39569 23.2901 11.9024 23.2901C14.9841 23.2901 17.7926 22.443 20.1481 20.338C20.4041 20.1092 20.4153 19.7173 20.1867 19.4612L17.4651 16.4111Z" fill="#4000FF"/>
<path d="M23.2198 1.04896C22.8639 1.04896 22.5754 1.33749 22.5754 1.69341V22.0888C22.5754 22.4448 22.8639 22.7333 23.2198 22.7333H27.5608C27.9167 22.7333 28.2053 22.4448 28.2053 22.0888V1.69341C28.2053 1.33749 27.9167 1.04896 27.5608 1.04896H23.2198Z" fill="#4000FF"/>
<path d="M37.2436 13.0511C36.85 13.0511 36.543 12.6877 36.7518 12.3542C37.7325 10.7878 41.0259 10.8478 41.8494 12.3941C42.0244 12.7225 41.7188 13.0511 41.3466 13.0511H37.2436ZM39.2188 7.08098C35.0737 7.08098 30.7121 9.55565 30.7121 15.1237C30.7121 20.6917 34.7953 23.0735 39.6209 23.0735C42.0283 23.0735 44.332 22.3734 46.1045 20.9493C46.3776 20.73 46.3947 20.3281 46.1617 20.0666L44.1909 17.8549C43.9681 17.6049 43.5928 17.5707 43.3068 17.7448C42.3966 18.2991 41.2751 18.6501 39.8684 18.6501C38.8886 18.6501 37.5791 18.2816 36.8767 17.4524C36.5984 17.1238 36.8975 16.7013 37.3281 16.7013H46.6173C46.9209 16.7013 47.1855 16.4888 47.2368 16.1896C48.2179 10.4669 44.4772 7.08098 39.2188 7.08098Z" fill="#4000FF"/>
<path d="M53.7051 7.86179C53.6084 7.61474 53.3702 7.45218 53.1049 7.45218H48.4901C48.0274 7.45218 47.7155 7.92523 47.8978 8.35048L53.9342 22.4355C54.0358 22.6724 54.2687 22.8261 54.5265 22.8261H59.3303C59.5917 22.8261 59.8272 22.6682 59.9265 22.4263L65.7079 8.34133C65.8819 7.91727 65.5701 7.45218 65.1117 7.45218H60.4836C60.2169 7.45218 59.9777 7.61654 59.882 7.86557L58.4013 11.721L57.4519 14.7592C57.2652 15.3568 56.4219 15.3639 56.225 14.7696L55.2152 11.721L53.7051 7.86179Z" fill="#4000FF"/>
<path d="M72.8593 13.0511C72.4658 13.0511 72.1587 12.6877 72.3675 12.3542C73.3482 10.7878 76.6416 10.8478 77.4652 12.3941C77.6401 12.7225 77.3345 13.0511 76.9623 13.0511H72.8593ZM74.8345 7.08098C70.6894 7.08098 66.3278 9.55565 66.3278 15.1237C66.3278 20.6917 70.411 23.0735 75.2366 23.0735C77.644 23.0735 79.9477 22.3734 81.7202 20.9493C81.9933 20.73 82.0104 20.3281 81.7774 20.0666L79.8066 17.8549C79.5838 17.6049 79.2086 17.5707 78.9225 17.7448C78.0123 18.2991 76.8908 18.6501 75.4841 18.6501C74.5043 18.6501 73.1948 18.2816 72.4924 17.4524C72.2141 17.1238 72.5132 16.7013 72.9438 16.7013H82.233C82.5366 16.7013 82.8012 16.4888 82.8525 16.1896C83.8336 10.4669 80.093 7.08098 74.8345 7.08098Z" fill="#4000FF"/>
<path d="M86.0533 7.45218C85.6974 7.45218 85.4089 7.74071 85.4089 8.09662V22.0888C85.4089 22.4448 85.6974 22.7333 86.0533 22.7333H90.4562C90.8121 22.7333 91.1006 22.4448 91.1006 22.0888V14.7834C91.1006 12.7727 92.307 11.9066 93.73 11.9066C94.4623 11.9066 95.0322 12.0148 95.674 12.3967C96.0167 12.6005 96.4742 12.517 96.668 12.1686L98.3574 9.13227C98.4938 8.88701 98.4586 8.57824 98.2468 8.39412C97.2731 7.5479 95.9437 7.08098 94.5652 7.08098C93.4981 7.08098 92.463 7.40048 91.6665 8.10837C91.329 8.40835 90.6826 8.28537 90.5925 7.84289C90.5462 7.61552 90.3462 7.45218 90.1141 7.45218H86.0533Z" fill="#4000FF"/>
<path d="M100.644 1.04896C100.288 1.04896 99.9995 1.33749 99.9995 1.69341V22.0888C99.9995 22.4448 100.288 22.7333 100.644 22.7333H104.985C105.341 22.7333 105.629 22.4448 105.629 22.0888V1.69341C105.629 1.33749 105.341 1.04896 104.985 1.04896H100.644Z" fill="#4000FF"/>
<path d="M119.928 7.45218C119.663 7.45218 119.425 7.61429 119.328 7.86082L118.066 11.0714L116.849 14.5604C116.645 15.1458 115.812 15.1334 115.626 14.5422L114.539 11.1023L113.393 7.88053C113.301 7.6237 113.058 7.45218 112.786 7.45218H108.174C107.714 7.45218 107.402 7.91938 107.578 8.34377L113.166 21.8004C113.233 21.9617 113.232 22.1432 113.163 22.3035L110.568 28.2979C110.383 28.7234 110.695 29.1984 111.159 29.1984H115.695C115.951 29.1984 116.183 29.0463 116.286 28.8111L125.19 8.35382C125.375 7.92818 125.064 7.45218 124.599 7.45218H119.928Z" fill="#4000FF"/>
</svg>
