<svg width="40" height="40" viewBox="0 0 40 40" fill="none" xmlns="http://www.w3.org/2000/svg">
<rect x="0.75" y="0.75" width="38.5" height="38.5" rx="19.25" fill="url(#paint0_linear_93_3203)"/>
<rect x="0.75" y="0.75" width="38.5" height="38.5" rx="19.25" stroke="#4000FF" stroke-width="1.5"/>
<path d="M28.362 21.1401C28.1678 20.7915 28.0658 20.3991 28.0658 20.0001C28.0658 19.6011 28.1678 19.2087 28.362 18.8601L28.895 18.0161C28.9902 17.879 29.0524 17.7218 29.0767 17.5567C29.101 17.3915 29.0868 17.223 29.0352 17.0643C28.9836 16.9056 28.896 16.761 28.7792 16.6418C28.6624 16.5226 28.5196 16.432 28.362 16.3771L27.435 16.0071C27.074 15.8387 26.7619 15.581 26.5283 15.2583C26.2946 14.9356 26.1472 14.5587 26.1 14.1631L26.035 13.1631C26.0313 12.9962 25.9891 12.8325 25.9117 12.6846C25.8342 12.5368 25.7237 12.4088 25.5886 12.3108C25.4536 12.2127 25.2977 12.1472 25.1331 12.1193C24.9686 12.0914 24.7998 12.102 24.64 12.1501L23.673 12.3951C23.2816 12.4747 22.8763 12.4526 22.4959 12.3309C22.1155 12.2092 21.7726 11.992 21.5 11.7001L20.862 10.9321C20.7608 10.7994 20.6304 10.6919 20.4809 10.6179C20.3314 10.5439 20.1668 10.5054 20 10.5054C19.8332 10.5054 19.6686 10.5439 19.5191 10.6179C19.3696 10.6919 19.2392 10.7994 19.138 10.9321L18.5 11.7001C18.2284 11.9921 17.8866 12.2098 17.5071 12.3323C17.1276 12.4548 16.7231 12.4782 16.332 12.4001L15.365 12.1551C15.2049 12.106 15.0356 12.0948 14.8704 12.1222C14.7052 12.1497 14.5486 12.215 14.4129 12.3132C14.2772 12.4114 14.1662 12.5397 14.0885 12.688C14.0107 12.8363 13.9685 13.0007 13.965 13.1681L13.9 14.1681C13.8523 14.5642 13.7041 14.9415 13.4696 15.2642C13.2351 15.5869 12.922 15.8444 12.56 16.0121L11.633 16.3821C11.4754 16.437 11.3326 16.5276 11.2158 16.6468C11.099 16.766 11.0114 16.9106 10.9598 17.0693C10.9082 17.228 10.894 17.3965 10.9183 17.5617C10.9426 17.7268 11.0048 17.884 11.1 18.0211L11.633 18.8651C11.8272 19.2137 11.9292 19.6061 11.9292 20.0051C11.9292 20.4041 11.8272 20.7965 11.633 21.1451L11.1 21.9891C11.0048 22.1262 10.9426 22.2834 10.9183 22.4485C10.894 22.6136 10.9082 22.7821 10.9598 22.9409C11.0114 23.0996 11.099 23.2442 11.2158 23.3634C11.3326 23.4826 11.4754 23.5732 11.633 23.6281L12.56 23.9981C12.9221 24.1659 13.2353 24.4235 13.4698 24.7464C13.7044 25.0693 13.8524 25.4468 13.9 25.8431L13.965 26.8381C13.9685 27.0055 14.0107 27.1699 14.0885 27.3182C14.1662 27.4665 14.2772 27.5948 14.4129 27.693C14.5486 27.7912 14.7052 27.8565 14.8704 27.884C15.0356 27.9114 15.2049 27.9001 15.365 27.8511L16.332 27.6061C16.7231 27.528 17.1276 27.5514 17.5071 27.6739C17.8866 27.7964 18.2284 28.0141 18.5 28.3061L19.138 29.0741C19.2392 29.2068 19.3696 29.3143 19.5191 29.3883C19.6686 29.4623 19.8332 29.5008 20 29.5008C20.1668 29.5008 20.3314 29.4623 20.4809 29.3883C20.6304 29.3143 20.7608 29.2068 20.862 29.0741L21.5 28.3061C21.7716 28.0141 22.1134 27.7964 22.4929 27.6739C22.8724 27.5514 23.2769 27.528 23.668 27.6061L24.635 27.8511C24.7948 27.8992 24.9636 27.9098 25.1281 27.8819C25.2927 27.854 25.4486 27.7885 25.5836 27.6904C25.7187 27.5923 25.8292 27.4644 25.9067 27.3165C25.9841 27.1687 26.0263 27.005 26.03 26.8381L26.095 25.8431C26.1426 25.4468 26.2906 25.0693 26.5252 24.7464C26.7597 24.4235 27.0729 24.1659 27.435 23.9981L28.362 23.6281C28.5196 23.5732 28.6624 23.4826 28.7792 23.3634C28.896 23.2442 28.9836 23.0996 29.0352 22.9409C29.0868 22.7821 29.101 22.6136 29.0767 22.4485C29.0524 22.2834 28.9902 22.1262 28.895 21.9891L28.362 21.1401Z" stroke="#4000FF" stroke-width="1.5" stroke-linecap="round" stroke-linejoin="round"/>
<path d="M16.5 20L18.833 22.333L23.5 17.667" stroke="#4000FF" stroke-width="1.5" stroke-linecap="round" stroke-linejoin="round"/>
<defs>
<linearGradient id="paint0_linear_93_3203" x1="20" y1="0" x2="20" y2="40" gradientUnits="userSpaceOnUse">
<stop stop-color="#F5F1FF"/>
<stop offset="1" stop-color="#EAE3FF"/>
</linearGradient>
</defs>
</svg>
